<svg width="24" height="20" viewBox="0 0 24 20" fill="none" xmlns="http://www.w3.org/2000/svg">
<path d="M5.14272 4.28561H22.9999L20.7341 12.2142C20.5634 12.811 20.203 13.336 19.7073 13.7098C19.2117 14.0835 18.6078 14.2856 17.987 14.2856H8.41557C7.71195 14.286 7.03292 14.0268 6.5086 13.5575C5.98428 13.0883 5.65154 12.4421 5.57415 11.7428L4.42843 1.42847H1.57129" stroke="black" stroke-width="2" stroke-linecap="round" stroke-linejoin="round"/>
<path d="M7.99986 19.2856C8.78884 19.2856 9.42843 18.646 9.42843 17.857C9.42843 17.0681 8.78884 16.4285 7.99986 16.4285C7.21088 16.4285 6.57129 17.0681 6.57129 17.857C6.57129 18.646 7.21088 19.2856 7.99986 19.2856Z" fill="black"/>
<path d="M19.4286 19.2856C20.2175 19.2856 20.8571 18.646 20.8571 17.857C20.8571 17.0681 20.2175 16.4285 19.4286 16.4285C18.6396 16.4285 18 17.0681 18 17.857C18 18.646 18.6396 19.2856 19.4286 19.2856Z" fill="black"/>
</svg>
