<svg width="22" height="26" viewBox="0 0 22 26" fill="none" xmlns="http://www.w3.org/2000/svg">
<path d="M11.0001 0.410645C13.7707 0.410645 16.4278 1.51125 18.3869 3.47033C20.346 5.42942 21.4466 8.08651 21.4466 10.8571C21.4466 15.2714 18.3448 20.0821 12.2216 25.3406C11.8811 25.6331 11.447 25.7938 10.9981 25.7934C10.5493 25.793 10.1155 25.6316 9.7755 25.3385L9.3705 24.9871C3.51835 19.8656 0.553711 15.1728 0.553711 10.8571C0.553711 8.08651 1.65431 5.42942 3.6134 3.47033C5.57248 1.51125 8.22957 0.410645 11.0001 0.410645ZM11.0001 2.01779C8.65582 2.01779 6.40751 2.94907 4.74982 4.60675C3.09213 6.26444 2.16085 8.51275 2.16085 10.8571C2.16085 14.6092 4.89085 18.9324 10.4259 23.7753L10.8255 24.1214C10.8741 24.1631 10.9361 24.1861 11.0001 24.1861C11.0642 24.1861 11.1262 24.1631 11.1748 24.1214C16.9776 19.1371 19.8394 14.6981 19.8394 10.8571C19.8394 9.69628 19.6108 8.54686 19.1666 7.47443C18.7224 6.40199 18.0713 5.42756 17.2505 4.60675C16.4297 3.78595 15.4552 3.13485 14.3828 2.69064C13.3104 2.24642 12.1609 2.01779 11.0001 2.01779ZM11.0001 6.83922C12.0657 6.83922 13.0877 7.26252 13.8412 8.01602C14.5947 8.76951 15.018 9.79147 15.018 10.8571C15.018 11.9227 14.5947 12.9446 13.8412 13.6981C13.0877 14.4516 12.0657 14.8749 11.0001 14.8749C9.93454 14.8749 8.91258 14.4516 8.15909 13.6981C7.40559 12.9446 6.98228 11.9227 6.98228 10.8571C6.98228 9.79147 7.40559 8.76951 8.15909 8.01602C8.91258 7.26252 9.93454 6.83922 11.0001 6.83922ZM11.0001 8.44636C10.3608 8.44636 9.7476 8.70034 9.29551 9.15244C8.84341 9.60454 8.58943 10.2177 8.58943 10.8571C8.58943 11.4964 8.84341 12.1096 9.29551 12.5617C9.7476 13.0138 10.3608 13.2678 11.0001 13.2678C11.6395 13.2678 12.2527 13.0138 12.7048 12.5617C13.1569 12.1096 13.4109 11.4964 13.4109 10.8571C13.4109 10.2177 13.1569 9.60454 12.7048 9.15244C12.2527 8.70034 11.6395 8.44636 11.0001 8.44636Z" fill="black"/>
</svg>
