<svg width="25" height="23" viewBox="0 0 25 23" fill="none" xmlns="http://www.w3.org/2000/svg">
<path d="M25.0029 11.2515L18.7529 6.25146V10.0015L7.50293 10.0015V12.5015L18.7529 12.5015V16.2515L25.0029 11.2515Z" fill="white"/>
<path d="M11.2511 22.5024C12.7291 22.5064 14.1933 22.2171 15.5588 21.6513C16.9243 21.0854 18.164 20.2544 19.2061 19.2062L17.4386 17.4387C15.7861 19.0912 13.5886 20.0024 11.2511 20.0024C8.91355 20.0024 6.71605 19.0912 5.06355 17.4387C3.41105 15.7862 2.4998 13.5887 2.4998 11.2512C2.4998 8.91365 3.41105 6.71615 5.06355 5.06365C6.71605 3.41115 8.91355 2.4999 11.2511 2.4999C13.5886 2.4999 15.7861 3.41115 17.4386 5.06365L19.2061 3.29615C17.0823 1.17115 14.2573 -9.77516e-05 11.2511 -9.77516e-05C8.2448 -9.77516e-05 5.41981 1.17115 3.29606 3.29615C1.17106 5.4199 -0.000196218 8.2449 -0.000196218 11.2512C-0.000196218 14.2574 1.17106 17.0824 3.29606 19.2062C4.33814 20.2544 5.57783 21.0854 6.94332 21.6513C8.30881 22.2171 9.77298 22.5064 11.2511 22.5024Z" fill="white"/>
</svg>
