<svg width="20" height="26" viewBox="0 0 20 26" fill="none" xmlns="http://www.w3.org/2000/svg">
<path fill-rule="evenodd" clip-rule="evenodd" d="M11.25 1.75C11.25 1.41848 11.1183 1.10054 10.8839 0.866116C10.6495 0.631696 10.3315 0.5 10 0.5C9.66849 0.5 9.35054 0.631696 9.11612 0.866116C8.8817 1.10054 8.75001 1.41848 8.75001 1.75V2.6875H8.05376C6.71379 2.68741 5.42417 3.19799 4.44741 4.1153C3.47066 5.0326 2.8802 6.28767 2.79626 7.625L2.52001 12.0425C2.41321 13.7265 1.84781 15.3492 0.885007 16.735C0.685798 17.0213 0.564078 17.3543 0.531685 17.7016C0.499291 18.0489 0.557327 18.3987 0.700147 18.717C0.842968 19.0352 1.06571 19.311 1.34672 19.5177C1.62772 19.7243 1.95742 19.8548 2.30376 19.8962L6.56251 20.4062V21.75C6.56251 22.6617 6.92467 23.536 7.56933 24.1807C8.21398 24.8253 9.08833 25.1875 10 25.1875C10.9117 25.1875 11.786 24.8253 12.4307 24.1807C13.0753 23.536 13.4375 22.6617 13.4375 21.75V20.4062L17.6963 19.895C18.0424 19.8534 18.3719 19.723 18.6527 19.5164C18.9335 19.3098 19.1562 19.0341 19.2989 18.7161C19.4417 18.398 19.4998 18.0485 19.4676 17.7013C19.4354 17.3542 19.3139 17.0213 19.115 16.735C18.1522 15.3492 17.5868 13.7265 17.48 12.0425L17.2038 7.62625C17.1201 6.2887 16.5298 5.03332 15.553 4.11575C14.5762 3.19818 13.2864 2.68743 11.9463 2.6875H11.25V1.75ZM8.05376 4.5625C7.19072 4.5624 6.36009 4.89121 5.73098 5.48201C5.10187 6.07281 4.72157 6.88116 4.66751 7.7425L4.39251 12.16C4.26398 14.1859 3.58359 16.1381 2.42501 17.805C2.41059 17.8257 2.40178 17.8498 2.39943 17.8749C2.39707 17.9 2.40126 17.9253 2.41157 17.9484C2.42189 17.9714 2.43799 17.9913 2.4583 18.0063C2.47862 18.0213 2.50246 18.0307 2.52751 18.0338L7.19876 18.595C9.06001 18.8175 10.94 18.8175 12.8013 18.595L17.4725 18.0338C17.4976 18.0307 17.5214 18.0213 17.5417 18.0063C17.562 17.9913 17.5781 17.9714 17.5884 17.9484C17.5988 17.9253 17.6029 17.9 17.6006 17.8749C17.5982 17.8498 17.5894 17.8257 17.575 17.805C16.4169 16.1379 15.7369 14.1858 15.6088 12.16L15.3325 7.7425C15.2784 6.88116 14.8981 6.07281 14.269 5.48201C13.6399 4.89121 12.8093 4.5624 11.9463 4.5625H8.05376ZM10 23.3125C9.13751 23.3125 8.43751 22.6125 8.43751 21.75V20.8125H11.5625V21.75C11.5625 22.6125 10.8625 23.3125 10 23.3125Z" fill="black"/>
</svg>
