<svg width="24" height="24" viewBox="0 0 24 24" fill="none" xmlns="http://www.w3.org/2000/svg">
<path d="M17 20C18.1046 20 19 19.1046 19 18C19 16.8954 18.1046 16 17 16C15.8954 16 15 16.8954 15 18C15 19.1046 15.8954 20 17 20Z" stroke="black" stroke-width="1.5" stroke-linecap="round" stroke-linejoin="round"/>
<path d="M7 20C8.10457 20 9 19.1046 9 18C9 16.8954 8.10457 16 7 16C5.89543 16 5 16.8954 5 18C5 19.1046 5.89543 20 7 20Z" stroke="black" stroke-width="1.5" stroke-linecap="round" stroke-linejoin="round"/>
<path d="M5 17.972C3.903 17.918 3.22 17.755 2.732 17.268C2.244 16.781 2.082 16.097 2.028 15M9 18H15M19 17.972C20.097 17.918 20.78 17.755 21.268 17.268C22 16.535 22 15.357 22 13V11H17.3C16.555 11 16.183 11 15.882 10.902C15.5818 10.8045 15.309 10.6373 15.0859 10.4141C14.8627 10.191 14.6955 9.91815 14.598 9.618C14.5 9.317 14.5 8.945 14.5 8.2C14.5 7.083 14.5 6.525 14.353 6.073C14.2067 5.62277 13.9559 5.21356 13.6212 4.87882C13.2864 4.54408 12.8772 4.2933 12.427 4.147C11.975 4 11.417 4 10.3 4H2M2 8H8M2 11H6" stroke="black" stroke-width="1.5" stroke-linecap="round" stroke-linejoin="round"/>
<path d="M14.5 6H16.321C17.777 6 18.504 6 19.096 6.354C19.689 6.707 20.034 7.348 20.724 8.63L22 11" stroke="black" stroke-width="1.5" stroke-linecap="round" stroke-linejoin="round"/>
</svg>
