<svg width="24" height="24" viewBox="0 0 24 24" fill="none" xmlns="http://www.w3.org/2000/svg">
<path d="M22.1514 19.3711C21.5988 18.062 20.7968 16.873 19.7901 15.8701C18.7865 14.8644 17.5976 14.0625 16.2891 13.5088C16.2774 13.5029 16.2657 13.5 16.254 13.4941C18.0792 12.1758 19.2657 10.0283 19.2657 7.60547C19.2657 3.5918 16.0137 0.339844 12.0001 0.339844C7.9864 0.339844 4.73445 3.5918 4.73445 7.60547C4.73445 10.0283 5.92097 12.1758 7.74617 13.4971C7.73445 13.5029 7.72273 13.5059 7.71101 13.5117C6.39851 14.0654 5.22078 14.8594 4.21003 15.873C3.20428 16.8766 2.40241 18.0655 1.84871 19.374C1.30473 20.655 1.01135 22.0285 0.984448 23.4199C0.983666 23.4512 0.989151 23.4823 1.00058 23.5114C1.01201 23.5405 1.02915 23.5671 1.05099 23.5895C1.07283 23.6118 1.09893 23.6296 1.12776 23.6418C1.15658 23.6539 1.18755 23.6602 1.21882 23.6602H2.97664C3.10554 23.6602 3.20808 23.5576 3.21101 23.4316C3.2696 21.1699 4.17781 19.0518 5.78328 17.4463C7.44441 15.7852 9.65047 14.8711 12.0001 14.8711C14.3497 14.8711 16.5557 15.7852 18.2169 17.4463C19.8223 19.0518 20.7305 21.1699 20.7891 23.4316C20.7921 23.5605 20.8946 23.6602 21.0235 23.6602H22.7813C22.8126 23.6602 22.8436 23.6539 22.8724 23.6418C22.9012 23.6296 22.9273 23.6118 22.9492 23.5895C22.971 23.5671 22.9881 23.5405 22.9996 23.5114C23.011 23.4823 23.0165 23.4512 23.0157 23.4199C22.9864 22.0195 22.6964 20.6572 22.1514 19.3711ZM12.0001 12.6445C10.6553 12.6445 9.38972 12.1201 8.43757 11.168C7.48543 10.2158 6.96101 8.9502 6.96101 7.60547C6.96101 6.26074 7.48543 4.99512 8.43757 4.04297C9.38972 3.09082 10.6553 2.56641 12.0001 2.56641C13.3448 2.56641 14.6104 3.09082 15.5626 4.04297C16.5147 4.99512 17.0391 6.26074 17.0391 7.60547C17.0391 8.9502 16.5147 10.2158 15.5626 11.168C14.6104 12.1201 13.3448 12.6445 12.0001 12.6445Z" fill="black"/>
</svg>
