<svg width="26" height="26" viewBox="0 0 26 26" fill="none" xmlns="http://www.w3.org/2000/svg">
<path d="M24.2498 24.25L18.821 18.8213M18.821 18.8213C19.7496 17.8927 20.4862 16.7902 20.9888 15.5769C21.4914 14.3637 21.75 13.0633 21.75 11.75C21.75 10.4368 21.4914 9.13637 20.9888 7.92308C20.4862 6.70979 19.7496 5.60737 18.821 4.67876C17.8924 3.75015 16.79 3.01354 15.5767 2.51098C14.3634 2.00842 13.063 1.74976 11.7498 1.74976C10.4365 1.74976 9.13612 2.00842 7.92284 2.51098C6.70955 3.01354 5.60713 3.75015 4.67852 4.67876C2.80311 6.55418 1.74951 9.09778 1.74951 11.75C1.74951 14.4022 2.80311 16.9459 4.67852 18.8213C6.55393 20.6967 9.09754 21.7503 11.7498 21.7503C14.402 21.7503 16.9456 20.6967 18.821 18.8213Z" stroke="black" stroke-width="2" stroke-linecap="round" stroke-linejoin="round"/>
</svg>
