<svg width="32" height="32" viewBox="0 0 32 32" fill="none" xmlns="http://www.w3.org/2000/svg">
<path d="M26.3334 13.3334C26.3334 13.0682 26.228 12.8139 26.0405 12.6263C25.8529 12.4388 25.5986 12.3334 25.3334 12.3334C25.0682 12.3334 24.8138 12.4388 24.6263 12.6263C24.4387 12.8139 24.3334 13.0682 24.3334 13.3334H26.3334ZM7.66671 13.3334C7.66671 13.0682 7.56135 12.8139 7.37382 12.6263C7.18628 12.4388 6.93193 12.3334 6.66671 12.3334C6.40149 12.3334 6.14714 12.4388 5.9596 12.6263C5.77207 12.8139 5.66671 13.0682 5.66671 13.3334H7.66671ZM27.2934 16.7068C27.3849 16.805 27.4953 16.8838 27.618 16.9385C27.7407 16.9931 27.8731 17.0225 28.0073 17.0249C28.1416 17.0273 28.275 17.0026 28.3995 16.9523C28.524 16.902 28.6371 16.8271 28.7321 16.7321C28.8271 16.6372 28.9019 16.5241 28.9522 16.3996C29.0025 16.275 29.0272 16.1417 29.0248 16.0074C29.0225 15.8731 28.9931 15.7407 28.9384 15.618C28.8838 15.4954 28.805 15.385 28.7067 15.2934L27.2934 16.7068ZM16 4.0001L16.7067 3.29343C16.5192 3.10616 16.265 3.00098 16 3.00098C15.735 3.00098 15.4809 3.10616 15.2934 3.29343L16 4.0001ZM3.29338 15.2934C3.19513 15.385 3.11632 15.4954 3.06167 15.618C3.00701 15.7407 2.97762 15.8731 2.97525 16.0074C2.97288 16.1417 2.99758 16.275 3.04788 16.3996C3.09817 16.5241 3.17303 16.6372 3.26799 16.7321C3.36295 16.8271 3.47606 16.902 3.60058 16.9523C3.7251 17.0026 3.85847 17.0273 3.99274 17.0249C4.12701 17.0225 4.25943 16.9931 4.38209 16.9385C4.50476 16.8838 4.61516 16.805 4.70671 16.7068L3.29338 15.2934ZM9.33338 29.0001H22.6667V27.0001H9.33338V29.0001ZM26.3334 25.3334V13.3334H24.3334V25.3334H26.3334ZM7.66671 25.3334V13.3334H5.66671V25.3334H7.66671ZM28.7067 15.2934L16.7067 3.29343L15.2934 4.70676L27.2934 16.7068L28.7067 15.2934ZM15.2934 3.29343L3.29338 15.2934L4.70671 16.7068L16.7067 4.70676L15.2934 3.29343ZM22.6667 29.0001C23.6392 29.0001 24.5718 28.6138 25.2594 27.9262C25.9471 27.2385 26.3334 26.3059 26.3334 25.3334H24.3334C24.3334 26.2534 23.5867 27.0001 22.6667 27.0001V29.0001ZM9.33338 27.0001C8.41338 27.0001 7.66671 26.2534 7.66671 25.3334H5.66671C5.66671 26.3059 6.05302 27.2385 6.74065 27.9262C7.42828 28.6138 8.36092 29.0001 9.33338 29.0001V27.0001Z" fill="black"/>
</svg>
